<svg id="SvgjsSvg1033" width="288" height="288" xmlns="http://www.w3.org/2000/svg" version="1.1" xmlns:xlink="http://www.w3.org/1999/xlink" xmlns:svgjs="http://svgjs.com/svgjs"><defs id="SvgjsDefs1034"></defs><g id="SvgjsG1035"><svg xmlns="http://www.w3.org/2000/svg" viewBox="0 0 32 32" width="288" height="288"><g data-name="Layer 2" fill="#666666" class="color000 svgShape"><path d="M15.69 9.39a4.22 4.22 0 1 1 4.22-4.22A4.22 4.22 0 0 1 15.69 9.39zm0-6.44a2.22 2.22 0 1 0 2.22 2.22A2.22 2.22 0 0 0 15.69 3zM30 15.12v11.5a1 1 0 0 1-2 0V15.24A3.25 3.25 0 0 0 25.49 12a3.19 3.19 0 0 0-3.37 1.51 6.32 6.32 0 0 0-.75-2.15 5 5 0 0 1 3-1.39A5.16 5.16 0 0 1 30 15.12z" fill="#666666" class="color000 svgShape"></path><path d="M24.85 10.65A3.68 3.68 0 1 1 28.54 7 3.69 3.69 0 0 1 24.85 10.65zm0-5.36A1.68 1.68 0 1 0 26.54 7 1.68 1.68 0 0 0 24.85 5.28zM10.69 25.7a1 1 0 0 0-1 1V29a1 1 0 1 0 2 0V26.7a1 1 0 0 0-1-1zM14.93 9a6.16 6.16 0 0 0-5.24 6.19v7.18a1 1 0 0 0 1 1h0a1 1 0 0 0 1-1V15a4 4 0 0 1 4.37-4 4.14 4.14 0 0 1 3.63 4.19V29a1 1 0 1 0 2 0V15A6 6 0 0 0 14.93 9zM7.37 3.38A3.69 3.69 0 0 0 3.69 4.62a1 1 0 0 0 .8 1.61h0a1 1 0 0 0 .77-.37 1.66 1.66 0 0 1 1.26-.58 1.68 1.68 0 1 1 0 3.36 1.66 1.66 0 0 1-1.26-.58 1 1 0 0 0-.77-.37h0a1 1 0 0 0-.76 1.66 3.68 3.68 0 1 0 3.64-6z" fill="#666666" class="color000 svgShape"></path><path d="M6 10a5.31 5.31 0 0 0-4.65 5.37v1.27a1 1 0 0 0 1 1h0a1 1 0 0 0 1-1v-1.5A3.17 3.17 0 0 1 7.16 12a3.12 3.12 0 0 1 2.12 1.58 6.81 6.81 0 0 1 .8-2.21A5.09 5.09 0 0 0 6 10zM2.36 19.12a1 1 0 0 0-1 1v6.5a1 1 0 0 0 2 0v-6.5a1 1 0 0 0-1-1z" fill="#666666" class="color000 svgShape"></path></g></svg></g></svg>